<!--?xml version="1.0" encoding="utf-8"?-->
<!-- Generator: Adobe Illustrator 18.1.1, SVG Export Plug-In . SVG Version: 6.00 Build 0)  -->

<svg version="1.1" id="_x31_0" xmlns="http://www.w3.org/2000/svg" xmlns:xlink="http://www.w3.org/1999/xlink" x="0px" y="0px" viewBox="0 0 512 512" style="width: 256px; height: 256px; opacity: 1;" xml:space="preserve">
<style type="text/css">
	.st0{fill:#374149;}
</style>
<g>
	<path class="st0" d="M475.997,0H36.003C16.164,0,0.004,16.078,0.004,35.999v439.994c0,19.922,16.16,35.999,35.999,35.999h108.878
		l6.641,0.008c0,0,0-0.004,0-0.008h0.16c-1.84-28.159,5.679-70.718,9.281-85.838c4.238-18.402,26.316-111.998,29.277-124.318
		c-1.918-4.32-7.359-18.48-7.359-37.918c0-36.64,21.84-65.358,49.761-65.358c21.84,0,36,15.516,36,39.598
		c0,14.48-5.762,33.038-11.84,52.718c-3.281,10.641-6.722,21.683-9.281,32.32c-2.398,10.32-0.398,20.238,5.679,27.922
		c6.481,8.16,16.641,12.8,27.922,12.8c43.679,0,75.436-46.96,75.436-111.76c0-58.159-41.757-98.721-101.518-98.721
		c-71.601,0-110.158,54.402-110.158,105.682c0,19.68,7.359,42.316,17.922,55.121c2.637,3.195,3.438,6.718,2.477,10.718
		c-1.84,7.918-6.157,25.199-7.039,28.718c-1.52,6.48-5.758,7.519-8.16,7.519c-1.758,0-3.68-0.558-5.84-1.519
		c-33.519-15.602-53.597-63.839-53.597-101.518c0-75.596,53.518-156.958,171.037-156.958c91.038,0,159.755,64.479,159.755,149.998
		c0,91.921-58.159,161.119-135.198,161.119c-19.09,0-38.667-7.398-51.257-18.558c-1.754-1.59-3.375-3.258-4.824-5
		c0,0-0.023,0.082-0.027,0.09c-0.039-0.043-0.09-0.086-0.129-0.133c-3.762,14.402-11.282,43.038-13.52,51.761
		c-3.91,14.969-16.546,46.105-26.148,66.448c-0.824,1.715-1.636,3.375-2.414,4.91h0.078c-0.024,0.051-0.051,0.114-0.078,0.16
		h288.078c19.918,0,35.999-16.078,35.999-35.999V35.999C511.996,16.078,495.914,0,475.997,0z" style="fill: rgb(0, 0, 0);"></path>
</g>
</svg>
